:SAMPLES-PER-SECOND 30
:FRAME-RANGE 1-564
:FULLY-SPECIFIED
:DEGREES
71
root  53.0539 39.1901 150.342 6.58628 -85.2936 -18.0858
RightUpLeg  3.90287 0.959093 8.0109
RightLeg  5.9389 -2.40062 -2.80896
RightFoot  -1.70345 0.0289184 -0.480251
RightToes  -1.74624e-010 0 -3.6325e-017
Spine  10.7184 0.159111 10.2274
Spine1  2.29246 2.61831 -3.08414
HEad  23.5581 -0.351124 -4.82905
LeftShoulder1  3.45626 -4.37618 -37.7522
LeftArm  19.8978 9.1876 -29.6382
LeftForeArm  3.86285 -0.937755 -19.1552
LeftHand  -1.03237 -6.46019 10.4236
RightShoulder  6.67713 5.02878 66.7553
RightArm  28.5081 1.30583 -5.28631
RightForeArm  7.97105 11.5318 12.4958
RightHand  0.876758 20.711 3.36326
LeftUpLeg  0.000786585 8.74726 5.13355
LeftLeg  54.8854 -4.90471 -6.98114
LeftFoot  -4.58435 0.390719 -6.14986
LeftToes  -6.43926e-010 8.38805e-011 -3.16407e-011
72
root  52.2833 39.2523 150.557 9.71469 -86.9807 -21.086
RightUpLeg  5.0995 0.34468 7.45446
RightLeg  6.01493 -0.205104 -2.68476
RightFoot  -3.29245 -0.0431161 0.29452
RightToes  -1.74624e-010 0 -3.6325e-017
Spine  11.1552 0.51048 10.3738
Spine1  1.82394 3.00226 -3.19539
HEad  24.1951 0.232834 -4.67859
LeftShoulder1  3.42026 -4.26803 -37.8927
LeftArm  18.933 11.4851 -29.0332
LeftForeArm  3.73089 -0.435307 -19.2028
LeftHand  -0.985512 -6.15756 10.2139
RightShoulder  6.9194 5.37068 66.5502
RightArm  29.0169 1.81062 -4.70641
RightForeArm  7.71557 12.2704 11.9976
RightHand  0.827182 20.8856 3.11957
LeftUpLeg  -2.6595 9.39403 5.67292
LeftLeg  53.3869 -4.97343 -6.69015
LeftFoot  -5.98692 0.247605 -4.52625
LeftToes  -6.43926e-010 8.38805e-011 -3.16407e-011
73
root  51.527 39.4442 150.75 11.8985 -88.9477 -22.9685
RightUpLeg  6.84913 -0.0944313 6.46108
RightLeg  4.41207 2.61182 -2.53559
RightFoot  -3.46844 -0.0550109 0.456536
RightToes  -1.74624e-010 0 -3.6325e-017
Spine  11.6239 1.05894 10.0899
Spine1  1.14361 3.44932 -3.69926
HEad  24.4132 0.828787 -4.58419
LeftShoulder1  3.39435 -4.17366 -38.0874
LeftArm  16.5268 13.5212 -28.1089
LeftForeArm  6.09023 0.121093 -19.0217
LeftHand  -0.820395 -7.08555 7.97127
RightShoulder  7.40269 5.98822 66.5623
RightArm  31.1108 1.86718 -4.5985
RightForeArm  5.21096 13.6529 11.2603
RightHand  0.787216 20.4799 3.00178
LeftUpLeg  -4.4314 8.29505 5.05168
LeftLeg  48.4482 -4.61269 -5.13406
LeftFoot  -7.74041 0.148859 -3.25784
LeftToes  -6.43926e-010 8.38805e-011 -3.16407e-011
74
root  50.8043 39.5181 150.96 147.7 -89.1946 -158.408
RightUpLeg  7.79457 0.0539563 6.34178
RightLeg  4.1689 4.95535 -3.09761
RightFoot  -4.24972 -0.102968 1.13053
RightToes  -1.74624e-010 0 -3.6325e-017
Spine  12.0064 1.3463 10.3464
Spine1  0.629248 3.75144 -4.04484
HEad  24.4352 1.58368 -4.35806
LeftShoulder1  3.37292 -4.09704 -38.2436
LeftArm  16.4861 15.627 -27.4723
LeftForeArm  5.32917 -0.872051 -18.8256
LeftHand  -0.976606 -6.26714 10.0354
RightShoulder  7.66892 6.35494 66.4183
RightArm  32.193 2.35899 -4.01864
RightForeArm  4.11645 14.3005 10.8629
RightHand  0.66357 19.9229 2.52129
LeftUpLeg  -5.94564 6.7588 5.21745
LeftLeg  42.3016 -4.03411 -3.53939
LeftFoot  -9.16092 0.103782 -2.56517
LeftToes  -6.43926e-010 8.38805e-011 -3.16407e-011
75
root  50.1083 39.6288 151.14 173.073 -87.4349 176.653
RightUpLeg  9.3311 -0.149534 5.71589
RightLeg  2.29314 6.37508 -3.18104
RightFoot  -4.60325 -0.0806536 0.686995
RightToes  -1.74624e-010 0 -3.6325e-017
Spine  12.2073 1.76944 9.82467
Spine1  0.523714 4.01425 -4.46415
HEad  24.1724 2.44927 -4.20483
LeftShoulder1  3.33812 -3.98677 -38.4233
LeftArm  14.3719 17.0244 -26.9581
LeftForeArm  7.20278 -1.13928 -18.4935
LeftHand  -0.825721 -6.15928 8.61679
RightShoulder  8.14081 6.98416 66.2983
RightArm  32.6359 2.44591 -3.79274
RightForeArm  4.25599 15.0321 10.2677
RightHand  0.718794 20.424 2.70513
LeftUpLeg  -6.50122 3.61627 5.04264
LeftLeg  33.9656 -2.92303 -1.76361
LeftFoot  -8.90827 0.114496 -2.87482
LeftToes  -6.43926e-010 8.38805e-011 -3.16407e-011
76
root  49.4045 39.6696 151.339 172.206 -85.7197 177.903
RightUpLeg  10.1272 -0.163478 5.41349
RightLeg  2.05509 8.05371 -3.25657
RightFoot  -5.32865 -0.0627173 0.343475
RightToes  -1.74624e-010 0 -3.6325e-017
Spine  12.0819 1.99103 9.82943
Spine1  0.928606 4.23636 -4.90062
HEad  23.8053 3.18529 -3.66394
LeftShoulder1  3.3036 -3.94248 -38.2327
LeftArm  12.8859 18.0527 -27.0025
LeftForeArm  9.57718 -1.44192 -18.1755
LeftHand  -0.898773 -7.5679 8.39459
RightShoulder  8.56819 7.51573 66.3955
RightArm  32.8599 2.61448 -3.57536
RightForeArm  3.76054 15.5328 9.8691
RightHand  0.635409 20.0143 2.38232
LeftUpLeg  -6.30785 -1.11808 5.56722
LeftLeg  24.7522 -1.97392 -0.661333
LeftFoot  -7.58663 0.146914 -3.093
LeftToes  -6.43926e-010 8.38805e-011 -3.16407e-011
77
root  48.691 39.658 151.543 169.053 -83.9678 -178.423
RightUpLeg  10.5642 -0.149864 5.29154
RightLeg  2.24728 9.76742 -3.05201
RightFoot  -6.31694 -0.0513267 0.192754
RightToes  -1.74624e-010 0 -3.6325e-017
Spine  12.1529 2.32426 9.8477
Spine1  0.795144 4.51391 -4.92437
HEad  23.8977 3.67008 -3.1607
LeftShoulder1  3.30856 -3.96751 -38.1541
LeftArm  12.7229 18.6624 -27.1661
LeftForeArm  10.0162 -2.00737 -17.9856
LeftHand  -0.929888 -7.73683 8.56758
RightShoulder  8.8745 7.85253 66.6768
RightArm  33.5166 2.83862 -3.77097
RightForeArm  2.65577 15.6791 9.89045
RightHand  0.546949 19.7743 2.00715
LeftUpLeg  -5.6614 -6.6298 6.76284
LeftLeg  15.0481 -1.19925 0.314667
LeftFoot  -5.1847 0.228554 -3.67089
LeftToes  -6.43926e-010 8.38805e-011 -3.16407e-011
78
root  47.9574 39.6284 151.754 166.584 -82.1945 -175.511
RightUpLeg  11.2646 0.0966241 5.51033
RightLeg  2.23324 11.3188 -3.43094
RightFoot  -7.48745 -0.0803305 0.877405
RightToes  -1.74624e-010 0 -3.6325e-017
Spine  11.9021 2.46807 9.79997
Spine1  1.2227 4.61007 -4.97121
HEad  23.6874 4.88059 -2.87367
LeftShoulder1  3.28525 -3.94313 -37.9926
LeftArm  13.9157 19.1483 -27.6533
LeftForeArm  8.07919 -3.42747 -17.7363
LeftHand  -1.09254 -6.92034 10.6189
RightShoulder  9.113 8.1405 66.7603
RightArm  32.1553 3.27779 -3.379
RightForeArm  4.99871 14.8783 10.3327
RightHand  0.702321 20.7349 2.59236
LeftUpLeg  -4.65186 -2.08741 6.45875
LeftLeg  5.78369 -12.6902 3.96321
LeftFoot  -1.99479 0.279134 -3.26822
LeftToes  -6.43926e-010 8.38805e-011 -3.16407e-011
79
root  47.1866 39.5977 151.988 165.419 -80.3487 -174.043
RightUpLeg  12.1006 0.288103 5.59059
RightLeg  2.21484 12.8392 -3.79677
RightFoot  -8.38645 -0.0797117 0.885083
RightToes  -1.74624e-010 0 -3.6325e-017
Spine  12.0303 2.71379 9.51154
Spine1  1.18523 4.77356 -4.84971
HEad  24.1246 5.34556 -2.24723
LeftShoulder1  3.31228 -3.98779 -38.0869
LeftArm  15.0756 19.1351 -27.847
LeftForeArm  8.3764 -4.34743 -17.4889
LeftHand  -1.24672 -7.7175 11.3622
RightShoulder  9.23876 8.25151 66.9968
RightArm  30.8929 3.41009 -3.37667
RightForeArm  6.36604 13.8915 10.9693
RightHand  0.699297 20.7935 2.57176
LeftUpLeg  -4.3075 0.40593 6.56902
LeftLeg  -0.593995 -24.0886 6.979
LeftFoot  -1.16068 0.142844 -1.52542
LeftToes  -6.43926e-010 8.38805e-011 -3.16407e-011
80
root  46.4243 39.5402 152.225 165.297 -78.0031 -173.482
RightUpLeg  12.5235 0.681054 5.72951
RightLeg  2.60895 14.5653 -4.34805
RightFoot  -9.40171 -0.0808155 1.00848
RightToes  -1.74624e-010 0 -3.6325e-017
Spine  12.205 3.16252 9.31577
Spine1  1.13873 5.20559 -4.88736
HEad  24.317 6.22213 -1.83238
LeftShoulder1  3.31169 -3.98828 -38.0765
LeftArm  15.7847 18.522 -28.3789
LeftForeArm  8.82563 -4.87309 -17.3278
LeftHand  -1.34667 -8.25534 11.7795
RightShoulder  9.25595 8.24078 67.1521
RightArm  29.2072 3.37747 -3.36291
RightForeArm  8.05822 12.9017 11.4961
RightHand  0.761959 20.8835 2.83466
LeftUpLeg  -4.49874 1.21718 7.46723
LeftLeg  -4.03667 -31.8423 8.2455
LeftFoot  -4.76753 0.242942 -3.73156
LeftToes  -6.43926e-010 8.38805e-011 -3.16407e-011
81
root  45.6394 39.4843 152.476 164.554 -75.608 -172.632
RightUpLeg  13.6447 1.7425 6.46136
RightLeg  2.47945 15.625 -5.75596
RightFoot  -10.3214 -0.0863792 1.8415
RightToes  -1.74624e-010 0 -3.6325e-017
Spine  12.5463 3.41984 9.09336
Spine1  1.35031 5.51751 -5.1107
HEad  24.5358 6.94656 -1.31999
LeftShoulder1  3.29811 -3.96988 -38.0065
LeftArm  16.629 17.8651 -28.9129
LeftForeArm  7.11636 -5.70448 -17.1319
LeftHand  -1.23511 -7.20364 11.6951
RightShoulder  9.4079 8.35326 67.5312
RightArm  28.1667 3.25116 -3.58572
RightForeArm  8.92478 12.0003 12.0405
RightHand  0.775528 20.7371 2.91406
LeftUpLeg  -4.43654 1.91945 7.96818
LeftLeg  -4.55159 -34.9694 8.2915
LeftFoot  -7.8277 0.269628 -7.25639
LeftToes  -6.43926e-010 8.38805e-011 -3.16407e-011
82
root  44.8137 39.3821 152.821 164.897 -72.4987 -172.659
RightUpLeg  13.8763 2.83931 6.66249
RightLeg  3.61845 17.2934 -6.50762
RightFoot  -11.7717 -0.0713921 2.23678
RightToes  -1.74624e-010 0 -3.6325e-017
Spine  12.6807 3.75984 9.13576
Spine1  1.41806 5.99913 -5.69687
HEad  25.0495 8.08804 -0.704135
LeftShoulder1  3.30327 -3.98212 -38.0035
LeftArm  17.3703 17.3768 -29.5213
LeftForeArm  6.27003 -6.5581 -16.8461
LeftHand  -1.28398 -6.86743 12.4568
RightShoulder  9.57265 8.55111 67.5776
RightArm  27.7018 2.79929 -3.66214
RightForeArm  9.87604 11.3295 12.4094
RightHand  0.814918 20.8177 3.07567
LeftUpLeg  -4.44758 1.34014 7.96038
LeftLeg  -2.28421 -35.7442 7.76858
LeftFoot  -9.08627 0.205485 -7.6696
LeftToes  -6.43926e-010 8.38805e-011 -3.16407e-011
